# xmcd CD Database Entry
#
# Track frame offsets:
# 150
# 3436
# 16991
# 41567
# 50512
# 59939
# 69482
# 84151
# 98955
# 108415
# 121161
# 139506
# 146098
# 173178
#
# Disc length: 2515 seconds
#
# Revision: 1
# Processed by: cddbd v1.4b41PL1 Copyright (c) Steve Scherf et al.
# Submitted via: tcd 2.0b
#
DISCID=be09d10e
DTITLE=Centro-Matic - All The Falsest Hearts Can Try
DYEAR=1900
DGENRE=
TTITLE0=Cool That You Showed Us How
TTITLE1=Most Everyone Will Find
TTITLE2=Members Of The Show Them How It's Done
TTITLE3=Magic Cyclops
TTITLE4=Gas Bolwin' Out Of Our Eyes
TTITLE5=Saving A Free Seat
TTITLE6=Call The Legion In Tonight
TTITLE7=Hercules Now!
TTITLE8=In The Strategy Room
TTITLE9=Save Us, Tothero
TTITLE10=Blisters May Come
TTITLE11=Would Go Over
TTITLE12=Huge In Every City
TTITLE13=Aerial Spins/Nautical Wilderness
EXTD=
EXTT0=
EXTT1=
EXTT2=
EXTT3=
EXTT4=
EXTT5=
EXTT6=
EXTT7=
EXTT8=
EXTT9=
EXTT10=
EXTT11=
EXTT12=
EXTT13=
PLAYORDER=
